<svg xmlns="http://www.w3.org/2000/svg" width="960" height="600" viewBox="0 0 960 600" role="img" aria-label="DARK DEVIL GitHub profile card" xmlns:c2pa="http://c2pa.org/manifest"><metadata><c2pa:manifest>AAAWgmp1bWIAAAAeanVtZGMycGEAEQAQgAAAqgA4m3EDYzJwYQAAABZcanVtYgAAAEdqdW1kYzJtYQARABCAAACqADibcQN1cm46YzJwYTpmNDZlOTRhMi1hOTQ3LTRlZjQtYWZiNi1kYzQyZjQ1ODJhMGYAAAADl2p1bWIAAAApanVtZGMyYXMAEQAQgAAAqgA4m3EDYzJwYS5hc3NlcnRpb25zAAAAALxqdW1iAAAARGp1bWRjYm9yABEAEIAAAKoAOJtxE2MycGEuaW5ncmVkaWVudC52MwAAAAAYYzJzaDILIdgVXWWqzkCfp0Q9iIAAAABwY2JvcqNpZGM6Zm9ybWF0bWltYWdlL3N2Zyt4bWxqaW5zdGFuY2VJRHgseG1wOmlpZDo2MjcxZTEwZC04NzgyLTQzYjctODI1Ny1lZThkMWEyYTY0OThscmVsYXRpb25zaGlwaHBhcmVudE9mAAAB4mp1bWIAAABBanVtZGNib3IAEQAQgAAAqgA4m3ETYzJwYS5hY3Rpb25zLnYyAAAAABhjMnNoRy29Ura/XE9/M7rrQHzkpgAAAZljYm9yomdhY3Rpb25zgqJmYWN0aW9ua2MycGEub3BlbmVkanBhcmFtZXRlcnOha2luZ3JlZGllbnRzgaJjdXJseC1zZWxmI2p1bWJmPWMycGEuYXNzZXJ0aW9ucy9jMnBhLmluZ3JlZGllbnQudjNkaGFzaFggdfIHFTBeWNjUyuryiGmwXOR60JvSrHjp4N0oGk5aKpGkZmFjdGlvbngdY29tLmFudGhyb3BpYy5jbGF1ZGUucHJvdmlkZWRqcGFyYW1ldGVyc6F4H2NvbS5hbnRocm9waWMub3JpZ2luLWNvbmZpZGVuY2VndW5rbm93bmtkZXNjcmlwdGlvbnhmQ2xhdWRlIHByb3ZpZGVkIHRoaXMgZmlsZSBhdCB0aGUgcmVxdWVzdCBvZiBhIHVzZXIgYW5kIG1heSBoYXZlIGNyZWF0ZWQgb3IgbW9kaWZpZWQgdGhlIGZpbGUgY29udGVudHMubXNvZnR3YXJlQWdlbnShZG5hbWVmQ2xhdWRlcmFsbEFjdGlvbnNJbmNsdWRlZPUAAADIanVtYgAAAEBqdW1kY2JvcgARABCAAACqADibcRNjMnBhLmhhc2guZGF0YQAAAAAYYzJzaHKIfLNT86CC2eeYoWYdlbAAAACAY2JvcqVjYWxnZnNoYTI1NmNwYWRNAAAAAAAAAAAAAAAAAGRoYXNoWCClfXZduEVocYV4CpS4MoSFHTqWazHUph8JFLxqJxEFJ2RuYW1lbmp1bWJmIG1hbmlmZXN0amV4Y2x1c2lvbnOBomVzdGFydBjNZmxlbmd0aBkeBAAAAj5qdW1iAAAAJ2p1bWRjMmNsABEAEIAAAKoAOJtxA2MycGEuY2xhaW0udjIAAAACD2Nib3KlY2FsZ2ZzaGEyNTZpc2lnbmF0dXJleE1zZWxmI2p1bWJmPS9jMnBhL3VybjpjMnBhOmY0NmU5NGEyLWE5NDctNGVmNC1hZmI2LWRjNDJmNDU4MmEwZi9jMnBhLnNpZ25hdHVyZWppbnN0YW5jZUlEeCx4bXA6aWlkOmQ3NTFjZTBlLWQ3YzctNDg3Mi1hMjQzLTJlYjMwZjExZTBhMnJjcmVhdGVkX2Fzc2VydGlvbnODomN1cmx4LXNlbGYjanVtYmY9YzJwYS5hc3NlcnRpb25zL2MycGEuaW5ncmVkaWVudC52M2RoYXNoWCB18gcVMF5Y2NTK6vKIabBc5HrQm9KseOng3SgaTloqkaJjdXJseCpzZWxmI2p1bWJmPWMycGEuYXNzZXJ0aW9ucy9jMnBhLmFjdGlvbnMudjJkaGFzaFggLTlm4Rah5BhAqZs2p+xbaF155zmWIJPOFg2qhvHY/SuiY3VybHgpc2VsZiNqdW1iZj1jMnBhLmFzc2VydGlvbnMvYzJwYS5oYXNoLmRhdGFkaGFzaFgg3xalnXo9NUr/KbCFZJB48iI6+ClHqO7xpBtO7xkrovp0Y2xhaW1fZ2VuZXJhdG9yX2luZm+jZG5hbWVvQW50aHJvcGljIEZpbGVzZ3ZlcnNpb25lMS4wLjBrc3BlY1ZlcnNpb25lMi40LjAAABA4anVtYgAAAChqdW1kYzJjcwARABCAAACqADibcQNjMnBhLnNpZ25hdHVyZQAAABAIY2JvctKEWQISogEmGCFZAgowggIGMIIBjaADAgECAhRA5aAK7sI50L64g/oGQgU9Z1UTADAKBggqhkjOPQQDAzBJMRcwFQYDVQQKEw5BbnRocm9waWMsIFBCQzEuMCwGA1UEAxMlQW50aHJvcGljIENvbnRlbnQgQ3JlZGVudGlhbHMgUm9vdCBDQTAeFw0yNjA4MDcxODQzNTZaFw0yODA4MDYxOTQzNTZaMEQxFzAVBgNVBAoTDkFudGhyb3BpYywgUEJDMSkwJwYDVQQDEyBBbnRocm9waWMgQ2xhdWRlIENvbnRlbnQgU2lnbmluZzBZMBMGByqGSM49AgEGCCqGSM49AwEHA0IABJh6CmvLUBgFFNU0vUKlOVtE6djd17L5SuwX0LemFisBM3dkd/3cyjxFA3Qo5S46fX0/ihY0VZ7mfb9KF703t5OjWDBWMA4GA1UdDwEB/wQEAwIHgDAVBgNVHSUEDjAMBgorBgEEAYPoXgIBMAwGA1UdEwEB/wQCMAAwHwYDVR0jBBgwFoAUzlHiBIFOZFsj+OPEz5o+nMHXXMIwCgYIKoZIzj0EAwMDZwAwZAIwMXMdFJ4BetLLVY7ORuE9noqbbAZOZn/aArXyTwFAZfKrPzxF2vPoJNf1+UCdg1XGAjBwX1zd9WGqYkqmL5SFqw1QySjr1zJfpJM9+1rdDwSPLMOPOjKuiXjoU/pUUeG9RwmhY3BhZFkNngAAAAAAAAAAAAAAAAAAAAAAAAAAAAAAAAAAAAAAAAAAAAAAAAAAAAAAAAAAAAAAAAAAAAAAAAAAAAAAAAAAAAAAAAAAAAAAAAAAAAAAAAAAAAAAAAAAAAAAAAAAAAAAAAAAAAAAAAAAAAAAAAAAAAAAAAAAAAAAAAAAAAAAAAAAAAAAAAAAAAAAAAAAAAAAAAAAAAAAAAAAAAAAAAAAAAAAAAAAAAAAAAAAAAAAAAAAAAAAAAAAAAAAAAAAAAAAAAAAAAAAAAAAAAAAAAAAAAAAAAAAAAAAAAAAAAAAAAAAAAAAAAAAAAAAAAAAAAAAAAAAAAAAAAAAAAAAAAAAAAAAAAAAAAAAAAAAAAAAAAAAAAAAAAAAAAAAAAAAAAAAAAAAAAAAAAAAAAAAAAAAAAAAAAAAAAAAAAAAAAAAAAAAAAAAAAAAAAAAAAAAAAAAAAAAAAAAAAAAAAAAAAAAAAAAAAAAAAAAAAAAAAAAAAAAAAAAAAAAAAAAAAAAAAAAAAAAAAAAAAAAAAAAAAAAAAAAAAAAAAAAAAAAAAAAAAAAAAAAAAAAAAAAAAAAAAAAAAAAAAAAAAAAAAAAAAAAAAAAAAAAAAAAAAAAAAAAAAAAAAAAAAAAAAAAAAAAAAAAAAAAAAAAAAAAAAAAAAAAAAAAAAAAAAAAAAAAAAAAAAAAAAAAAAAAAAAAAAAAAAAAAAAAAAAAAAAAAAAAAAAAAAAAAAAAAAAAAAAAAAAAAAAAAAAAAAAAAAAAAAAAAAAAAAAAAAAAAAAAAAAAAAAAAAAAAAAAAAAAAAAAAAAAAAAAAAAAAAAAAAAAAAAAAAAAAAAAAAAAAAAAAAAAAAAAAAAAAAAAAAAAAAAAAAAAAAAAAAAAAAAAAAAAAAAAAAAAAAAAAAAAAAAAAAAAAAAAAAAAAAAAAAAAAAAAAAAAAAAAAAAAAAAAAAAAAAAAAAAAAAAAAAAAAAAAAAAAAAAAAAAAAAAAAAAAAAAAAAAAAAAAAAAAAAAAAAAAAAAAAAAAAAAAAAAAAAAAAAAAAAAAAAAAAAAAAAAAAAAAAAAAAAAAAAAAAAAAAAAAAAAAAAAAAAAAAAAAAAAAAAAAAAAAAAAAAAAAAAAAAAAAAAAAAAAAAAAAAAAAAAAAAAAAAAAAAAAAAAAAAAAAAAAAAAAAAAAAAAAAAAAAAAAAAAAAAAAAAAAAAAAAAAAAAAAAAAAAAAAAAAAAAAAAAAAAAAAAAAAAAAAAAAAAAAAAAAAAAAAAAAAAAAAAAAAAAAAAAAAAAAAAAAAAAAAAAAAAAAAAAAAAAAAAAAAAAAAAAAAAAAAAAAAAAAAAAAAAAAAAAAAAAAAAAAAAAAAAAAAAAAAAAAAAAAAAAAAAAAAAAAAAAAAAAAAAAAAAAAAAAAAAAAAAAAAAAAAAAAAAAAAAAAAAAAAAAAAAAAAAAAAAAAAAAAAAAAAAAAAAAAAAAAAAAAAAAAAAAAAAAAAAAAAAAAAAAAAAAAAAAAAAAAAAAAAAAAAAAAAAAAAAAAAAAAAAAAAAAAAAAAAAAAAAAAAAAAAAAAAAAAAAAAAAAAAAAAAAAAAAAAAAAAAAAAAAAAAAAAAAAAAAAAAAAAAAAAAAAAAAAAAAAAAAAAAAAAAAAAAAAAAAAAAAAAAAAAAAAAAAAAAAAAAAAAAAAAAAAAAAAAAAAAAAAAAAAAAAAAAAAAAAAAAAAAAAAAAAAAAAAAAAAAAAAAAAAAAAAAAAAAAAAAAAAAAAAAAAAAAAAAAAAAAAAAAAAAAAAAAAAAAAAAAAAAAAAAAAAAAAAAAAAAAAAAAAAAAAAAAAAAAAAAAAAAAAAAAAAAAAAAAAAAAAAAAAAAAAAAAAAAAAAAAAAAAAAAAAAAAAAAAAAAAAAAAAAAAAAAAAAAAAAAAAAAAAAAAAAAAAAAAAAAAAAAAAAAAAAAAAAAAAAAAAAAAAAAAAAAAAAAAAAAAAAAAAAAAAAAAAAAAAAAAAAAAAAAAAAAAAAAAAAAAAAAAAAAAAAAAAAAAAAAAAAAAAAAAAAAAAAAAAAAAAAAAAAAAAAAAAAAAAAAAAAAAAAAAAAAAAAAAAAAAAAAAAAAAAAAAAAAAAAAAAAAAAAAAAAAAAAAAAAAAAAAAAAAAAAAAAAAAAAAAAAAAAAAAAAAAAAAAAAAAAAAAAAAAAAAAAAAAAAAAAAAAAAAAAAAAAAAAAAAAAAAAAAAAAAAAAAAAAAAAAAAAAAAAAAAAAAAAAAAAAAAAAAAAAAAAAAAAAAAAAAAAAAAAAAAAAAAAAAAAAAAAAAAAAAAAAAAAAAAAAAAAAAAAAAAAAAAAAAAAAAAAAAAAAAAAAAAAAAAAAAAAAAAAAAAAAAAAAAAAAAAAAAAAAAAAAAAAAAAAAAAAAAAAAAAAAAAAAAAAAAAAAAAAAAAAAAAAAAAAAAAAAAAAAAAAAAAAAAAAAAAAAAAAAAAAAAAAAAAAAAAAAAAAAAAAAAAAAAAAAAAAAAAAAAAAAAAAAAAAAAAAAAAAAAAAAAAAAAAAAAAAAAAAAAAAAAAAAAAAAAAAAAAAAAAAAAAAAAAAAAAAAAAAAAAAAAAAAAAAAAAAAAAAAAAAAAAAAAAAAAAAAAAAAAAAAAAAAAAAAAAAAAAAAAAAAAAAAAAAAAAAAAAAAAAAAAAAAAAAAAAAAAAAAAAAAAAAAAAAAAAAAAAAAAAAAAAAAAAAAAAAAAAAAAAAAAAAAAAAAAAAAAAAAAAAAAAAAAAAAAAAAAAAAAAAAAAAAAAAAAAAAAAAAAAAAAAAAAAAAAAAAAAAAAAAAAAAAAAAAAAAAAAAAAAAAAAAAAAAAAAAAAAAAAAAAAAAAAAAAAAAAAAAAAAAAAAAAAAAAAAAAAAAAAAAAAAAAAAAAAAAAAAAAAAAAAAAAAAAAAAAAAAAAAAAAAAAAAAAAAAAAAAAAAAAAAAAAAAAAAAAAAAAAAAAAAAAAAAAAAAAAAAAAAAAAAAAAAAAAAAAAAAAAAAAAAAAAAAAAAAAAAAAAAAAAAAAAAAAAAAAAAAAAAAAAAAAAAAAAAAAAAAAAAAAAAAAAAAAAAAAAAAAAAAAAAAAAAAAAAAAAAAAAAAAAAAAAAAAAAAAAAAAAAAAAAAAAAAAAAAAAAAAAAAAAAAAAAAAAAAAAAAAAAAAAAAAAAAAAAAAAAAAAAAAAAAAAAAAAAAAAAAAAAAAAAAAAAAAAAAAAAAAAAAAAAAAAAAAAAAAAAAAAAAAAAAAAAAAAAAAAAAAAAAAAAAAAAAAAAAAAAAAAAAAAAAAAAAAAAAAAAAAAAAAAAAAAAAAAAAAAAAAAAAAAAAAAAAAAAAAAAAAAAAAAAAAAAAAAAAAAAAAAAAAAAAAAAAAAAAAAAAAAAAAAAAAAAAAAAAAAAAAAAAAAAAAAAAAAAAAAAAAAAAAAAAAAAAAAAAAAAAAAAAAAAAAAAAAAAAAAAAAAAAAAAAAAAAAAAAAAAAAAAAAAAAAAAAAAAAAAAAAAAAAAAAAAAAAAAAAAAAAAAAAAAAAAAAAAAAAAAAAAAAAAAAAAAAAAAAAAAAAAAAAAAAAAAAAAAAAAAAAAAAAAAAAAAAAAAAAAAAAAAAAAAAAAAAAAAAAAAAAAAAAAAAAAAAAAAAAAAAAAAAAAAAAAAAAAAAAAAAAAAAAAAAAAAAAAAAAAAAAAAAAAAAAAAAAAAAAAAAAAAAAAAAAAAAAAAAAAAAAAAAAAAAAAAAAAAAAAAAAAAAAAAAAAAAAAAAAAAAAAAAAAAAAAAAAAAAAAAAAAAAAAAAAAAAAAAAAAAAAAAAAAAAAAAAAAAAAAAAAAAAAAAAAAAAAAAAAAAAAAAAAAAAAAAAAAAAAAAAAAAAAAAAAAAAAAAAAAAAAAAAAAAAAAAAAAAAAAAAAAAAAAAAAAAAAAAAAAAAAAAAAAAAAAAAAAAAAAAAAAAAAAAAAAAAAAAAAAAAAAAAAAAAAAAAAAAAAAAAAAAAAAAAAAAAAAAAAAAAAAAAAAAAAAAAAAAAAAAAAAAAAAAAAAAAAAAAAAAAAAAAAAAAAAAAAAAAAAAAAAAAAAAAAAAAAAAAAAAAAAAAAAAAAAAAAAAAAAAAAAAAAAAAAAAAAAAAAAAAAAAAAAAAAAAAAAAAAAAAAAAAAAAAAAAAAAAAAAAAAAAAAAAAAAAAAAAAAAAAAAAAAAAAAAAAAAAAAAAAAAAAAAAAAAAAAAAAAAAAAAAAAAAAAAAAAAAAAAAAAAAAAAAAAAAAAAAAAAAAAAAAAAAAAAAAAAAAAAAAAAAAAAAAAAAAAAAAAAAAAAAAAAAAAAAAAAAAAAAAAAAAAAAAAAAAAAAAAAAAAAAAAAAAAAAAAAAAAAAAAAAAAAAAAAAAAAAAAAAAAAAAAAAAAAAAAAAAAAAAAAAAAAAAAAAAAAAAAAAAAAAAAAAAAAAAAAAAAAAAAAAAAAAAAAAAAAAAAAAAAAAAAAAAAAAAAAAAAAAAAAAAAAAAAAAAAAAAAAAAAAAAAAAAAAAAAAAAAAAAAAAAAAAAAAAAAAAAAAAAAAAAAAAAAAAAAAAAAAAAAAAAAAAAAAAAAAAAAAAAAAAAAAAAAAAAAAAAAAAAAAAAAAAAAAAAAAAAAAAAAAAAAAAAAAAAAAAAAAAAAAAAAAAAAAAAAAAPZYQJ++8ay5+NtMX7z32XdZZp5qSIeFVjEBQ72UJCKiYJVX6jzwL0a1k1uIY7uLZXI1gzSfFeahJ24FGIxNhbG/l4k=</c2pa:manifest></metadata>
<defs>
  <linearGradient id="redg" x1="0" y1="0" x2="1" y2="1"><stop offset="0" stop-color="#ff6a3d"/><stop offset="1" stop-color="#ff2e3d"/></linearGradient>
  <linearGradient id="redh" x1="0" y1="0" x2="1" y2="0"><stop offset="0" stop-color="#b3121f"/><stop offset="1" stop-color="#ff2e3d"/></linearGradient>
  <linearGradient id="ascii" gradientUnits="userSpaceOnUse" x1="0" y1="84" x2="0" y2="384"><stop offset="0" stop-color="#ff8a6a"/><stop offset=".55" stop-color="#ff2e3d"/><stop offset="1" stop-color="#8f1020"/></linearGradient>
  <radialGradient id="vig" cx=".5" cy=".42" r=".7"><stop offset=".6" stop-color="#000" stop-opacity="0"/><stop offset="1" stop-color="#000" stop-opacity=".75"/></radialGradient>
  <radialGradient id="bg" cx=".15" cy="0" r="1.1"><stop offset="0" stop-color="#2a0a10"/><stop offset=".5" stop-color="#0b0d12"/><stop offset="1" stop-color="#06070a"/></radialGradient>
  <filter id="glow" x="-20%" y="-40%" width="140%" height="180%"><feGaussianBlur stdDeviation="3" result="b"/><feMerge><feMergeNode in="b"/><feMergeNode in="SourceGraphic"/></feMerge></filter>
</defs>
<rect width="960" height="600" rx="22" fill="url(#bg)"/>
<rect x="20.5" y="20.5" width="919" height="559" rx="14" fill="#0d1016" fill-opacity=".92" stroke="#262b36"/>

<circle cx="46" cy="42" r="5.5" fill="#ff5f57"/><circle cx="66" cy="42" r="5.5" fill="#febc2e"/><circle cx="86" cy="42" r="5.5" fill="#28c840"/>
<g transform="translate(110,34)" fill="#e6edf3"><path d="M8 0C3.58 0 0 3.58 0 8c0 3.54 2.29 6.53 5.47 7.59.4.07.55-.17.55-.38 0-.19-.01-.82-.01-1.49-2.01.37-2.53-.49-2.69-.94-.09-.23-.48-.94-.82-1.13-.28-.15-.68-.52-.01-.53.63-.01 1.08.58 1.23.82.72 1.21 1.87.87 2.33.66.07-.52.28-.87.51-1.07-1.78-.2-3.64-.89-3.64-3.95 0-.87.31-1.59.82-2.15-.08-.2-.36-1.02.08-2.12 0 0 .67-.21 2.2.82.64-.18 1.32-.27 2-.27.68 0 1.36.09 2 .27 1.53-1.04 2.2-.82 2.2-.82.44 1.1.16 1.92.08 2.12.51.56.82 1.27.82 2.15 0 3.07-1.87 3.75-3.65 3.95.29.25.54.73.54 1.48 0 1.07-.01 1.93-.01 2.2 0 .21.15.46.55.38A8.013 8.013 0 0016 8c0-4.42-3.58-8-8-8z"/></g>
<circle cx="146" cy="42" r="9" fill="url(#redg)"/>
<rect x="164" y="31" width="440" height="22" rx="11" fill="#151922" stroke="#242a36"/>
<text x="180" y="46" font-family="ui-monospace,SFMono-Regular,Menlo,Consolas,'Liberation Mono',monospace" font-size="11.5" fill="#9aa4b2">DarkDevil-5439 / <tspan fill="#e6edf3">README.md</tspan></text>
<text x="916" y="46" text-anchor="end" font-family="ui-monospace,SFMono-Regular,Menlo,Consolas,'Liberation Mono',monospace" font-size="11.5" fill="#7d8590">Preview</text>
<line x1="21" y1="64" x2="939" y2="64" stroke="#1d222c"/>
<rect x="40" y="84" width="290" height="300" rx="12" fill="#07080c" stroke="#3a1419"/><rect x="40" y="84" width="290" height="300" rx="12" fill="url(#vig)"/>
<g font-family="ui-monospace,SFMono-Regular,Menlo,Consolas,'Liberation Mono',monospace" font-size="5.8" fill="url(#ascii)"><text x="111.5 115.0 251.5 255.0" y="116.2">-..-</text><text x="108.0 111.5 115.0 118.5 248.0 251.5 255.0 258.5" y="122.4">:#*..*%-</text><text x="108.0 111.5 115.0 118.5 122.0 244.5 248.0 251.5 255.0 258.5" y="128.6">+%%*..*%%*</text><text x="104.5 108.0 111.5 115.0 118.5 122.0 125.5 241.0 244.5 248.0 251.5 255.0 258.5 262.0" y="134.8">:%%%%*..*%%%%-</text><text x="104.5 108.0 111.5 115.0 118.5 122.0 125.5 129.0 237.5 241.0 244.5 248.0 251.5 255.0 258.5 262.0 265.5" y="141.0">*%%%%%*..*%%%%%#.</text><text x="104.5 108.0 111.5 115.0 118.5 122.0 125.5 129.0 132.5 234.0 237.5 241.0 244.5 248.0 251.5 255.0 258.5 262.0 265.5" y="147.2">*%%%%%%*..*%%%%%%#.</text><text x="104.5 108.0 111.5 115.0 118.5 122.0 125.5 129.0 132.5 136.0 230.5 234.0 237.5 241.0 244.5 248.0 251.5 255.0 258.5 262.0" y="153.4">-%%%%%%%#:.*%%%%%%%=</text><text x="104.5 108.0 111.5 115.0 118.5 122.0 125.5 129.0 132.5 136.0 139.5 227.0 230.5 234.0 237.5 241.0 244.5 248.0 251.5 255.0 258.5 262.0" y="159.6">.#%%%%%%%#:.*%%%%%%%%:</text><text x="108.0 111.5 115.0 118.5 122.0 125.5 129.0 132.5 136.0 139.5 143.0 223.5 227.0 230.5 234.0 237.5 241.0 244.5 248.0 251.5 255.0 258.5" y="165.8">+%%%%%%%%#:.*%%%%%%%%*</text><text x="108.0 111.5 115.0 118.5 122.0 125.5 129.0 132.5 136.0 139.5 143.0 146.5 167.5 171.0 174.5 178.0 181.5 185.0 188.5 192.0 195.5 199.0 220.0 223.5 227.0 230.5 234.0 237.5 241.0 244.5 248.0 251.5 255.0 258.5" y="172.0">-%%%%%%%%%#:..........:*%%%%%%%%%=</text><text x="111.5 115.0 118.5 122.0 125.5 129.0 132.5 136.0 139.5 143.0 146.5 150.0 153.5 157.0 160.5 164.0 167.5 171.0 174.5 178.0 181.5 185.0 188.5 192.0 195.5 199.0 202.5 206.0 209.5 213.0 216.5 220.0 223.5 227.0 230.5 234.0 237.5 241.0 244.5 248.0 251.5 255.0 258.5" y="178.2">+%%%%%%%%%#:..:-+********+=:...*%%%%%%%%%*.</text><text x="111.5 115.0 118.5 122.0 125.5 129.0 132.5 136.0 139.5 143.0 146.5 150.0 153.5 157.0 160.5 164.0 167.5 171.0 174.5 178.0 181.5 185.0 188.5 192.0 195.5 199.0 202.5 206.0 209.5 213.0 216.5 220.0 223.5 227.0 230.5 234.0 237.5 241.0 244.5 248.0 251.5 255.0" y="184.4">.+%%%%%%%%%*+***+========+***+*%%%%%%%%%*.</text><text x="115.0 118.5 122.0 125.5 129.0 132.5 136.0 139.5 143.0 146.5 150.0 153.5 157.0 160.5 164.0 167.5 171.0 174.5 178.0 181.5 185.0 188.5 192.0 195.5 199.0 202.5 206.0 209.5 213.0 216.5 220.0 223.5 227.0 230.5 234.0 237.5 241.0 244.5 248.0 251.5" y="190.6">.+%%%%%%%%#+================+#%%%%%%%%+.</text><text x="118.5 122.0 125.5 129.0 132.5 136.0 139.5 143.0 146.5 150.0 153.5 157.0 160.5 164.0 167.5 171.0 174.5 178.0 181.5 185.0 188.5 192.0 195.5 199.0 202.5 206.0 209.5 213.0 216.5 220.0 223.5 227.0 230.5 234.0 237.5 241.0 244.5 248.0" y="196.8">.+%%%%%#+====================+#%%%%%+.</text><text x="118.5 122.0 125.5 129.0 132.5 136.0 139.5 143.0 146.5 150.0 153.5 157.0 160.5 164.0 167.5 171.0 174.5 178.0 181.5 185.0 188.5 192.0 195.5 199.0 202.5 206.0 209.5 213.0 216.5 220.0 223.5 227.0 230.5 234.0 237.5 241.0 244.5 248.0" y="203.0">..=%%%*=========--::--=========*%%%+..</text><text x="115.0 118.5 122.0 125.5 129.0 132.5 136.0 139.5 143.0 146.5 150.0 153.5 157.0 160.5 164.0 167.5 199.0 202.5 206.0 209.5 213.0 216.5 220.0 223.5 227.0 230.5 234.0 237.5 241.0 244.5 248.0 251.5" y="209.2">....=#*=======-..-=======*%=....</text><text x="111.5 115.0 118.5 122.0 125.5 129.0 132.5 136.0 139.5 143.0 146.5 150.0 153.5 157.0 160.5 206.0 209.5 213.0 216.5 220.0 223.5 227.0 230.5 234.0 237.5 241.0 244.5 248.0 251.5 255.0" y="215.4">.....**======-..-======*#:....</text><text x="108.0 111.5 115.0 118.5 122.0 125.5 129.0 132.5 136.0 139.5 143.0 146.5 150.0 153.5 213.0 216.5 220.0 223.5 227.0 230.5 234.0 237.5 241.0 244.5 248.0 251.5 255.0 258.5" y="221.6">.....+#======::======**.....</text><text x="108.0 111.5 115.0 118.5 122.0 125.5 129.0 132.5 136.0 139.5 143.0 146.5 150.0 216.5 220.0 223.5 227.0 230.5 234.0 237.5 241.0 244.5 248.0 251.5 255.0 258.5" y="227.8">....:#+=====-:=====+#-....</text><text x="104.5 108.0 111.5 115.0 118.5 122.0 125.5 129.0 132.5 136.0 139.5 143.0 146.5 220.0 223.5 227.0 230.5 234.0 237.5 241.0 244.5 248.0 251.5 255.0 258.5 262.0" y="234.0">.....=#=====--=====*+.....</text><text x="104.5 108.0 111.5 115.0 118.5 122.0 125.5 129.0 132.5 136.0 139.5 143.0 146.5 153.5 213.0 220.0 223.5 227.0 230.5 234.0 237.5 241.0 244.5 248.0 251.5 255.0 258.5 262.0" y="240.2">.....**=====:...=====+#.....</text><text x="104.5 108.0 111.5 115.0 118.5 122.0 125.5 129.0 132.5 136.0 139.5 143.0 146.5 150.0 153.5 157.0 160.5 164.0 167.5 171.0 199.0 202.5 206.0 209.5 213.0 216.5 223.5 227.0 230.5 234.0 237.5 241.0 244.5 248.0 251.5 255.0 258.5 262.0" y="246.4">.....#+=====..#%*=:.:=*%%.=====+#:....</text><text x="104.5 108.0 111.5 115.0 118.5 122.0 125.5 129.0 132.5 136.0 139.5 143.0 153.5 157.0 160.5 164.0 167.5 171.0 174.5 178.0 188.5 192.0 195.5 199.0 202.5 206.0 209.5 213.0 223.5 227.0 230.5 234.0 237.5 241.0 244.5 248.0 251.5 255.0 258.5 262.0" y="252.6">....:#+====-=*%@@%*..*%@@%#=-====+#:....</text><text x="104.5 108.0 111.5 115.0 118.5 122.0 125.5 129.0 132.5 136.0 139.5 143.0 164.0 167.5 171.0 174.5 192.0 195.5 199.0 202.5 223.5 227.0 230.5 234.0 237.5 241.0 244.5 248.0 251.5 255.0 258.5 262.0" y="258.8">.....#*====-.-+==+-:-====+#:....</text><text x="104.5 108.0 111.5 115.0 118.5 122.0 125.5 129.0 132.5 136.0 139.5 143.0 146.5 223.5 227.0 230.5 234.0 237.5 241.0 244.5 248.0 251.5 255.0 258.5 262.0" y="265.0">.....+*=====.=====**.....</text><text x="108.0 111.5 115.0 118.5 122.0 125.5 129.0 132.5 136.0 139.5 143.0 146.5 220.0 223.5 227.0 230.5 234.0 237.5 241.0 244.5 248.0 251.5 255.0 258.5 262.0" y="271.2">....-#+====:.=====#=.....</text><text x="108.0 111.5 115.0 118.5 122.0 125.5 129.0 132.5 136.0 139.5 143.0 146.5 220.0 223.5 227.0 230.5 234.0 237.5 241.0 244.5 248.0 251.5 255.0 258.5" y="277.4">.....**====--====+#:....</text><text x="111.5 115.0 118.5 122.0 125.5 129.0 132.5 136.0 139.5 143.0 146.5 150.0 216.5 220.0 223.5 227.0 230.5 234.0 237.5 241.0 244.5 248.0 251.5 255.0" y="283.6">....-#+====::====+#-....</text><text x="115.0 118.5 122.0 125.5 129.0 132.5 136.0 139.5 143.0 146.5 150.0 153.5 157.0 160.5 164.0 167.5 171.0 174.5 178.0 181.5 185.0 188.5 195.5 202.5 206.0 209.5 213.0 216.5 220.0 223.5 227.0 230.5 234.0 237.5 241.0 244.5 248.0 251.5" y="289.8">....=#+====::=:..:.:.---=-:====+#=....</text><text x="118.5 122.0 125.5 129.0 132.5 136.0 139.5 143.0 146.5 150.0 153.5 157.0 160.5 164.0 167.5 171.0 174.5 195.5 199.0 202.5 206.0 209.5 213.0 216.5 220.0 223.5 227.0 230.5 234.0 237.5 241.0 244.5 248.0" y="296.0">....=#+====--=-...-+--====+#=....</text><text x="122.0 125.5 129.0 132.5 136.0 139.5 143.0 146.5 150.0 153.5 157.0 160.5 164.0 167.5 171.0 174.5 178.0 181.5 185.0 188.5 192.0 195.5 199.0 202.5 206.0 209.5 213.0 216.5 220.0 223.5 227.0 230.5 234.0 237.5 241.0 244.5" y="302.2">....-#*=====-:-======---=====+#-....</text><text x="129.0 132.5 136.0 139.5 143.0 146.5 150.0 153.5 157.0 160.5 164.0 167.5 171.0 174.5 178.0 181.5 185.0 188.5 192.0 195.5 199.0 202.5 206.0 209.5 213.0 216.5 220.0 223.5 227.0 230.5 234.0 237.5" y="308.4">....+#*====++--::--=+====+#+:...</text><text x="111.5 115.0 118.5 122.0 125.5 129.0 132.5 136.0 139.5 143.0 146.5 150.0 153.5 157.0 160.5 164.0 167.5 171.0 174.5 178.0 181.5 185.0 188.5 192.0 195.5 199.0 202.5 206.0 209.5 213.0 216.5 220.0 223.5 227.0 230.5 234.0 237.5 241.0 244.5 248.0 251.5 255.0" y="314.6">...::---===*#*+=++======+*=+*#*+==---::...</text><text x="94.0 97.5 101.0 104.5 108.0 111.5 115.0 118.5 122.0 125.5 129.0 132.5 136.0 139.5 143.0 146.5 150.0 153.5 157.0 160.5 164.0 167.5 171.0 174.5 178.0 181.5 185.0 188.5 192.0 195.5 199.0 202.5 206.0 209.5 213.0 216.5 220.0 223.5 227.0 230.5 234.0 237.5 241.0 244.5 248.0 251.5 255.0 258.5 262.0 265.5 269.0 272.5" y="320.8">::---=============+*##***++***##*+=============----:</text><text x="90.5 94.0 97.5 101.0 104.5 108.0 111.5 115.0 118.5 122.0 125.5 129.0 132.5 136.0 139.5 143.0 146.5 150.0 153.5 157.0 160.5 164.0 167.5 171.0 174.5 178.0 181.5 185.0 188.5 192.0 195.5 199.0 202.5 206.0 209.5 213.0 216.5 220.0 223.5 227.0 230.5 234.0 237.5 241.0 244.5 248.0 251.5 255.0 258.5 262.0 265.5 269.0 272.5 276.0" y="327.0">:=====================++++**+++*=====================-</text><text x="87.0 90.5 94.0 97.5 101.0 104.5 108.0 111.5 115.0 118.5 122.0 125.5 129.0 132.5 136.0 139.5 143.0 146.5 150.0 153.5 157.0 160.5 164.0 167.5 171.0 174.5 178.0 181.5 185.0 188.5 192.0 195.5 199.0 202.5 206.0 209.5 213.0 216.5 220.0 223.5 227.0 230.5 234.0 237.5 241.0 244.5 248.0 251.5 255.0 258.5 262.0 265.5 269.0 272.5 276.0 279.5" y="333.2">:======================*========+======================-</text><text x="83.5 87.0 90.5 94.0 97.5 101.0 104.5 108.0 111.5 115.0 118.5 122.0 125.5 129.0 132.5 136.0 139.5 143.0 146.5 150.0 153.5 157.0 160.5 164.0 167.5 171.0 174.5 178.0 181.5 185.0 188.5 192.0 195.5 199.0 202.5 206.0 209.5 213.0 216.5 220.0 223.5 227.0 230.5 234.0 237.5 241.0 244.5 248.0 251.5 255.0 258.5 262.0 265.5 269.0 272.5 276.0 279.5 283.0" y="339.4">:=======================*========+=======================-</text><text x="80.0 83.5 87.0 90.5 94.0 97.5 101.0 104.5 108.0 111.5 115.0 118.5 122.0 125.5 129.0 132.5 136.0 139.5 143.0 146.5 150.0 153.5 157.0 160.5 164.0 167.5 171.0 174.5 178.0 181.5 185.0 188.5 192.0 195.5 199.0 202.5 206.0 209.5 213.0 216.5 220.0 223.5 227.0 230.5 234.0 237.5 241.0 244.5 248.0 251.5 255.0 258.5 262.0 265.5 269.0 272.5 276.0 279.5 283.0 286.5" y="345.6">:========================*========++=======================-</text><text x="76.5 80.0 83.5 87.0 90.5 94.0 97.5 101.0 104.5 108.0 111.5 115.0 118.5 122.0 125.5 129.0 132.5 136.0 139.5 143.0 146.5 150.0 153.5 157.0 160.5 164.0 167.5 171.0 174.5 178.0 181.5 185.0 188.5 192.0 195.5 199.0 202.5 206.0 209.5 213.0 216.5 220.0 223.5 227.0 230.5 234.0 237.5 241.0 244.5 248.0 251.5 255.0 258.5 262.0 265.5 269.0 272.5 276.0 279.5 283.0 286.5 290.0" y="351.8">:========================*%+=======##========================-</text><text x="73.0 76.5 80.0 83.5 87.0 90.5 94.0 97.5 101.0 104.5 108.0 111.5 115.0 118.5 122.0 125.5 129.0 132.5 136.0 139.5 143.0 146.5 150.0 153.5 157.0 160.5 164.0 167.5 171.0 174.5 178.0 181.5 185.0 188.5 192.0 195.5 199.0 202.5 206.0 209.5 213.0 216.5 220.0 223.5 227.0 230.5 234.0 237.5 241.0 244.5 248.0 251.5 255.0 258.5 262.0 265.5 269.0 272.5 276.0 279.5 283.0 286.5 290.0 293.5" y="358.0">:==========================+========++=========================-</text><text x="69.5 73.0 76.5 80.0 83.5 87.0 90.5 94.0 97.5 101.0 104.5 108.0 111.5 115.0 118.5 122.0 125.5 129.0 132.5 136.0 139.5 143.0 146.5 150.0 153.5 157.0 160.5 164.0 167.5 171.0 174.5 178.0 181.5 185.0 188.5 192.0 195.5 199.0 202.5 206.0 209.5 213.0 216.5 220.0 223.5 227.0 230.5 234.0 237.5 241.0 244.5 248.0 251.5 255.0 258.5 262.0 265.5 269.0 272.5 276.0 279.5 283.0 286.5 290.0 293.5 297.0" y="364.2">:================================================================-</text><text x="66.0 69.5 73.0 76.5 80.0 83.5 87.0 90.5 94.0 97.5 101.0 104.5 108.0 111.5 115.0 118.5 122.0 125.5 129.0 132.5 136.0 139.5 143.0 146.5 150.0 153.5 157.0 160.5 164.0 167.5 171.0 174.5 178.0 181.5 185.0 188.5 192.0 195.5 199.0 202.5 206.0 209.5 213.0 216.5 220.0 223.5 227.0 230.5 234.0 237.5 241.0 244.5 248.0 251.5 255.0 258.5 262.0 265.5 269.0 272.5 276.0 279.5 283.0 286.5 290.0 293.5 297.0 300.5" y="370.4">:==================================================================-</text></g><circle cx="166.0" cy="247.0" r="4" fill="#fff" filter="url(#glow)"><animate attributeName="opacity" values="1;.35;1" dur="2.6s" repeatCount="indefinite"/></circle><circle cx="204.0" cy="247.0" r="4" fill="#fff" filter="url(#glow)"><animate attributeName="opacity" values="1;.35;1" dur="2.6s" repeatCount="indefinite"/></circle>

<text x="350" y="136" font-family="ui-monospace,SFMono-Regular,Menlo,Consolas,'Liberation Mono',monospace" font-size="46" font-weight="800" fill="url(#redg)" filter="url(#glow)" letter-spacing="2">DARK DEVIL</text>
<text x="352" y="162" font-family="ui-monospace,SFMono-Regular,Menlo,Consolas,'Liberation Mono',monospace" font-size="14" fill="#9aa4b2"><tspan fill="#ff2e3d">&gt;</tspan> Developer &amp; Tech Enthusiast</text>
<rect x="350" y="176" width="56" height="22" rx="11" fill="#1a0c10" stroke="#5a1a22"/><text x="378.0" y="191" text-anchor="middle" font-family="ui-monospace,SFMono-Regular,Menlo,Consolas,'Liberation Mono',monospace" font-size="11" fill="#ffb4ba">Python</text><rect x="414" y="176" width="84" height="22" rx="11" fill="#1a0c10" stroke="#5a1a22"/><text x="456.0" y="191" text-anchor="middle" font-family="ui-monospace,SFMono-Regular,Menlo,Consolas,'Liberation Mono',monospace" font-size="11" fill="#ffb4ba">JavaScript</text><rect x="506" y="176" width="35" height="22" rx="11" fill="#1a0c10" stroke="#5a1a22"/><text x="523.5" y="191" text-anchor="middle" font-family="ui-monospace,SFMono-Regular,Menlo,Consolas,'Liberation Mono',monospace" font-size="11" fill="#ffb4ba">C++</text><rect x="549" y="176" width="49" height="22" rx="11" fill="#1a0c10" stroke="#5a1a22"/><text x="573.5" y="191" text-anchor="middle" font-family="ui-monospace,SFMono-Regular,Menlo,Consolas,'Liberation Mono',monospace" font-size="11" fill="#ffb4ba">Linux</text><rect x="606" y="176" width="35" height="22" rx="11" fill="#1a0c10" stroke="#5a1a22"/><text x="623.5" y="191" text-anchor="middle" font-family="ui-monospace,SFMono-Regular,Menlo,Consolas,'Liberation Mono',monospace" font-size="11" fill="#ffb4ba">Git</text>
<rect x="350" y="212" width="570" height="64" rx="10" fill="#0a0c11" stroke="#22262f"/>
<rect x="350" y="212" width="4" height="64" rx="2" fill="#ff2e3d"/>
<text x="372" y="238" font-family="ui-monospace,SFMono-Regular,Menlo,Consolas,'Liberation Mono',monospace" font-size="12.5" font-style="italic" fill="#c9d1d9">“Debugging is like being the detective in a crime movie</text>
<text x="372" y="258" font-family="ui-monospace,SFMono-Regular,Menlo,Consolas,'Liberation Mono',monospace" font-size="12.5" font-style="italic" fill="#c9d1d9">where you are also the murderer.”<tspan fill="#ff2e3d">▌<animate attributeName="opacity" values="1;0;1" dur="1.1s" repeatCount="indefinite"/></tspan></text>
<rect x="350" y="292" width="132" height="84" rx="10" fill="#0a0c11" stroke="#22262f"/><text x="364" y="332" font-family="ui-monospace,SFMono-Regular,Menlo,Consolas,'Liberation Mono',monospace" font-size="22" font-weight="800" fill="#fff">128</text><text x="364" y="354" font-family="ui-monospace,SFMono-Regular,Menlo,Consolas,'Liberation Mono',monospace" font-size="11" fill="#8b94a3">Stars</text><rect x="442" y="344.0" width="4" height="14.0" rx="1.5" fill="#ff2e3d" opacity="0.45"><animate attributeName="height" from="0" to="14.0" dur=".9s" begin="0.00s" fill="freeze"/><animate attributeName="y" from="358" to="344.0" dur=".9s" begin="0.00s" fill="freeze"/></rect><rect x="449" y="336.0" width="4" height="22.0" rx="1.5" fill="#ff2e3d" opacity="0.56"><animate attributeName="height" from="0" to="22.0" dur=".9s" begin="0.08s" fill="freeze"/><animate attributeName="y" from="358" to="336.0" dur=".9s" begin="0.08s" fill="freeze"/></rect><rect x="456" y="340.0" width="4" height="18.0" rx="1.5" fill="#ff2e3d" opacity="0.67"><animate attributeName="height" from="0" to="18.0" dur=".9s" begin="0.16s" fill="freeze"/><animate attributeName="y" from="358" to="340.0" dur=".9s" begin="0.16s" fill="freeze"/></rect><rect x="463" y="326.0" width="4" height="32.0" rx="1.5" fill="#ff2e3d" opacity="0.78"><animate attributeName="height" from="0" to="32.0" dur=".9s" begin="0.24s" fill="freeze"/><animate attributeName="y" from="358" to="326.0" dur=".9s" begin="0.24s" fill="freeze"/></rect><rect x="470" y="318.0" width="4" height="40.0" rx="1.5" fill="#ff2e3d" opacity="0.89"><animate attributeName="height" from="0" to="40.0" dur=".9s" begin="0.32s" fill="freeze"/><animate attributeName="y" from="358" to="318.0" dur=".9s" begin="0.32s" fill="freeze"/></rect><rect x="496" y="292" width="132" height="84" rx="10" fill="#0a0c11" stroke="#22262f"/><text x="510" y="332" font-family="ui-monospace,SFMono-Regular,Menlo,Consolas,'Liberation Mono',monospace" font-size="22" font-weight="800" fill="#fff">1,240</text><text x="510" y="354" font-family="ui-monospace,SFMono-Regular,Menlo,Consolas,'Liberation Mono',monospace" font-size="11" fill="#8b94a3">Commits</text><rect x="588" y="338.0" width="4" height="20.0" rx="1.5" fill="#ff2e3d" opacity="0.45"><animate attributeName="height" from="0" to="20.0" dur=".9s" begin="0.00s" fill="freeze"/><animate attributeName="y" from="358" to="338.0" dur=".9s" begin="0.00s" fill="freeze"/></rect><rect x="595" y="330.0" width="4" height="28.0" rx="1.5" fill="#ff2e3d" opacity="0.56"><animate attributeName="height" from="0" to="28.0" dur=".9s" begin="0.08s" fill="freeze"/><animate attributeName="y" from="358" to="330.0" dur=".9s" begin="0.08s" fill="freeze"/></rect><rect x="602" y="342.0" width="4" height="16.0" rx="1.5" fill="#ff2e3d" opacity="0.67"><animate attributeName="height" from="0" to="16.0" dur=".9s" begin="0.16s" fill="freeze"/><animate attributeName="y" from="358" to="342.0" dur=".9s" begin="0.16s" fill="freeze"/></rect><rect x="609" y="322.0" width="4" height="36.0" rx="1.5" fill="#ff2e3d" opacity="0.78"><animate attributeName="height" from="0" to="36.0" dur=".9s" begin="0.24s" fill="freeze"/><animate attributeName="y" from="358" to="322.0" dur=".9s" begin="0.24s" fill="freeze"/></rect><rect x="616" y="332.0" width="4" height="26.0" rx="1.5" fill="#ff2e3d" opacity="0.89"><animate attributeName="height" from="0" to="26.0" dur=".9s" begin="0.32s" fill="freeze"/><animate attributeName="y" from="358" to="332.0" dur=".9s" begin="0.32s" fill="freeze"/></rect><rect x="642" y="292" width="132" height="84" rx="10" fill="#0a0c11" stroke="#22262f"/><text x="656" y="332" font-family="ui-monospace,SFMono-Regular,Menlo,Consolas,'Liberation Mono',monospace" font-size="22" font-weight="800" fill="#fff">24</text><text x="656" y="354" font-family="ui-monospace,SFMono-Regular,Menlo,Consolas,'Liberation Mono',monospace" font-size="11" fill="#8b94a3">Repos</text><rect x="734" y="342.0" width="4" height="16.0" rx="1.5" fill="#ff2e3d" opacity="0.45"><animate attributeName="height" from="0" to="16.0" dur=".9s" begin="0.00s" fill="freeze"/><animate attributeName="y" from="358" to="342.0" dur=".9s" begin="0.00s" fill="freeze"/></rect><rect x="741" y="342.0" width="4" height="16.0" rx="1.5" fill="#ff2e3d" opacity="0.56"><animate attributeName="height" from="0" to="16.0" dur=".9s" begin="0.08s" fill="freeze"/><animate attributeName="y" from="358" to="342.0" dur=".9s" begin="0.08s" fill="freeze"/></rect><rect x="748" y="330.0" width="4" height="28.0" rx="1.5" fill="#ff2e3d" opacity="0.67"><animate attributeName="height" from="0" to="28.0" dur=".9s" begin="0.16s" fill="freeze"/><animate attributeName="y" from="358" to="330.0" dur=".9s" begin="0.16s" fill="freeze"/></rect><rect x="755" y="336.0" width="4" height="22.0" rx="1.5" fill="#ff2e3d" opacity="0.78"><animate attributeName="height" from="0" to="22.0" dur=".9s" begin="0.24s" fill="freeze"/><animate attributeName="y" from="358" to="336.0" dur=".9s" begin="0.24s" fill="freeze"/></rect><rect x="762" y="322.0" width="4" height="36.0" rx="1.5" fill="#ff2e3d" opacity="0.89"><animate attributeName="height" from="0" to="36.0" dur=".9s" begin="0.32s" fill="freeze"/><animate attributeName="y" from="358" to="322.0" dur=".9s" begin="0.32s" fill="freeze"/></rect><rect x="788" y="292" width="132" height="84" rx="10" fill="#0a0c11" stroke="#22262f"/><text x="802" y="332" font-family="ui-monospace,SFMono-Regular,Menlo,Consolas,'Liberation Mono',monospace" font-size="22" font-weight="800" fill="#fff">86</text><text x="802" y="354" font-family="ui-monospace,SFMono-Regular,Menlo,Consolas,'Liberation Mono',monospace" font-size="11" fill="#8b94a3">Followers</text><rect x="880" y="346.0" width="4" height="12.0" rx="1.5" fill="#ff2e3d" opacity="0.45"><animate attributeName="height" from="0" to="12.0" dur=".9s" begin="0.00s" fill="freeze"/><animate attributeName="y" from="358" to="346.0" dur=".9s" begin="0.00s" fill="freeze"/></rect><rect x="887" y="338.0" width="4" height="20.0" rx="1.5" fill="#ff2e3d" opacity="0.56"><animate attributeName="height" from="0" to="20.0" dur=".9s" begin="0.08s" fill="freeze"/><animate attributeName="y" from="358" to="338.0" dur=".9s" begin="0.08s" fill="freeze"/></rect><rect x="894" y="334.0" width="4" height="24.0" rx="1.5" fill="#ff2e3d" opacity="0.67"><animate attributeName="height" from="0" to="24.0" dur=".9s" begin="0.16s" fill="freeze"/><animate attributeName="y" from="358" to="334.0" dur=".9s" begin="0.16s" fill="freeze"/></rect><rect x="901" y="326.0" width="4" height="32.0" rx="1.5" fill="#ff2e3d" opacity="0.78"><animate attributeName="height" from="0" to="32.0" dur=".9s" begin="0.24s" fill="freeze"/><animate attributeName="y" from="358" to="326.0" dur=".9s" begin="0.24s" fill="freeze"/></rect><rect x="908" y="318.0" width="4" height="40.0" rx="1.5" fill="#ff2e3d" opacity="0.89"><animate attributeName="height" from="0" to="40.0" dur=".9s" begin="0.32s" fill="freeze"/><animate attributeName="y" from="358" to="318.0" dur=".9s" begin="0.32s" fill="freeze"/></rect>
<rect x="40" y="396" width="290" height="164" rx="12" fill="#0a0c11" stroke="#22262f"/><text x="58" y="422" font-family="ui-monospace,SFMono-Regular,Menlo,Consolas,'Liberation Mono',monospace" font-size="12.5" font-weight="700" fill="#fff">Tech Stack</text><circle cx="312" cy="418" r="3.5" fill="#ff2e3d"><animate attributeName="opacity" values="1;.3;1" dur="2s" repeatCount="indefinite"/></circle><text x="58" y="456" font-family="ui-monospace,SFMono-Regular,Menlo,Consolas,'Liberation Mono',monospace" font-size="11" fill="#c9d1d9">Python</text><rect x="136" y="448" width="130" height="8" rx="4" fill="#1a1e27"/><rect x="136" y="448" width="110.5" height="8" rx="4" fill="url(#redh)"><animate attributeName="width" from="0" to="110.5" dur="1.2s" fill="freeze"/></rect><text x="312" y="456" text-anchor="end" font-family="ui-monospace,SFMono-Regular,Menlo,Consolas,'Liberation Mono',monospace" font-size="11" fill="#8b94a3">85%</text><text x="58" y="483" font-family="ui-monospace,SFMono-Regular,Menlo,Consolas,'Liberation Mono',monospace" font-size="11" fill="#c9d1d9">JavaScript</text><rect x="136" y="475" width="130" height="8" rx="4" fill="#1a1e27"/><rect x="136" y="475" width="93.6" height="8" rx="4" fill="url(#redh)"><animate attributeName="width" from="0" to="93.6" dur="1.2s" fill="freeze"/></rect><text x="312" y="483" text-anchor="end" font-family="ui-monospace,SFMono-Regular,Menlo,Consolas,'Liberation Mono',monospace" font-size="11" fill="#8b94a3">72%</text><text x="58" y="510" font-family="ui-monospace,SFMono-Regular,Menlo,Consolas,'Liberation Mono',monospace" font-size="11" fill="#c9d1d9">C++</text><rect x="136" y="502" width="130" height="8" rx="4" fill="#1a1e27"/><rect x="136" y="502" width="78.0" height="8" rx="4" fill="url(#redh)"><animate attributeName="width" from="0" to="78.0" dur="1.2s" fill="freeze"/></rect><text x="312" y="510" text-anchor="end" font-family="ui-monospace,SFMono-Regular,Menlo,Consolas,'Liberation Mono',monospace" font-size="11" fill="#8b94a3">60%</text><text x="58" y="537" font-family="ui-monospace,SFMono-Regular,Menlo,Consolas,'Liberation Mono',monospace" font-size="11" fill="#c9d1d9">HTML/CSS</text><rect x="136" y="529" width="130" height="8" rx="4" fill="#1a1e27"/><rect x="136" y="529" width="101.4" height="8" rx="4" fill="url(#redh)"><animate attributeName="width" from="0" to="101.4" dur="1.2s" fill="freeze"/></rect><text x="312" y="537" text-anchor="end" font-family="ui-monospace,SFMono-Regular,Menlo,Consolas,'Liberation Mono',monospace" font-size="11" fill="#8b94a3">78%</text>
<rect x="350" y="392" width="570" height="168" rx="12" fill="#0a0c11" stroke="#22262f"/><text x="368" y="418" font-family="ui-monospace,SFMono-Regular,Menlo,Consolas,'Liberation Mono',monospace" font-size="12.5" font-weight="700" fill="#fff">Featured Repositories</text><rect x="364" y="430" width="542" height="36" rx="8" fill="#0d1016" stroke="#1d222c"/><rect x="378" y="441" width="12" height="14" rx="2" fill="none" stroke="#ff2e3d" stroke-width="1.5"/><text x="400" y="445" font-family="ui-monospace,SFMono-Regular,Menlo,Consolas,'Liberation Mono',monospace" font-size="12" font-weight="700" fill="#e6edf3">project-one</text><text x="400" y="459" font-family="ui-monospace,SFMono-Regular,Menlo,Consolas,'Liberation Mono',monospace" font-size="10" fill="#7d8590">Short description of your best project</text><circle cx="716" cy="448" r="4.5" fill="#3572A5"/><text x="726" y="452" font-family="ui-monospace,SFMono-Regular,Menlo,Consolas,'Liberation Mono',monospace" font-size="11" fill="#9aa4b2">Python</text><text x="860" y="452" font-family="ui-monospace,SFMono-Regular,Menlo,Consolas,'Liberation Mono',monospace" font-size="12" fill="#f5b82e">★</text><text x="876" y="452" font-family="ui-monospace,SFMono-Regular,Menlo,Consolas,'Liberation Mono',monospace" font-size="11" fill="#c9d1d9">42</text><rect x="364" y="472" width="542" height="36" rx="8" fill="#0d1016" stroke="#1d222c"/><rect x="378" y="483" width="12" height="14" rx="2" fill="none" stroke="#ff2e3d" stroke-width="1.5"/><text x="400" y="487" font-family="ui-monospace,SFMono-Regular,Menlo,Consolas,'Liberation Mono',monospace" font-size="12" font-weight="700" fill="#e6edf3">project-two</text><text x="400" y="501" font-family="ui-monospace,SFMono-Regular,Menlo,Consolas,'Liberation Mono',monospace" font-size="10" fill="#7d8590">Short description of your second one</text><circle cx="716" cy="490" r="4.5" fill="#f1e05a"/><text x="726" y="494" font-family="ui-monospace,SFMono-Regular,Menlo,Consolas,'Liberation Mono',monospace" font-size="11" fill="#9aa4b2">JavaScript</text><text x="860" y="494" font-family="ui-monospace,SFMono-Regular,Menlo,Consolas,'Liberation Mono',monospace" font-size="12" fill="#f5b82e">★</text><text x="876" y="494" font-family="ui-monospace,SFMono-Regular,Menlo,Consolas,'Liberation Mono',monospace" font-size="11" fill="#c9d1d9">27</text><rect x="364" y="514" width="542" height="36" rx="8" fill="#0d1016" stroke="#1d222c"/><rect x="378" y="525" width="12" height="14" rx="2" fill="none" stroke="#ff2e3d" stroke-width="1.5"/><text x="400" y="529" font-family="ui-monospace,SFMono-Regular,Menlo,Consolas,'Liberation Mono',monospace" font-size="12" font-weight="700" fill="#e6edf3">project-three</text><text x="400" y="543" font-family="ui-monospace,SFMono-Regular,Menlo,Consolas,'Liberation Mono',monospace" font-size="10" fill="#7d8590">Short description of your third one</text><circle cx="716" cy="532" r="4.5" fill="#f34b7d"/><text x="726" y="536" font-family="ui-monospace,SFMono-Regular,Menlo,Consolas,'Liberation Mono',monospace" font-size="11" fill="#9aa4b2">C++</text><text x="860" y="536" font-family="ui-monospace,SFMono-Regular,Menlo,Consolas,'Liberation Mono',monospace" font-size="12" fill="#f5b82e">★</text><text x="876" y="536" font-family="ui-monospace,SFMono-Regular,Menlo,Consolas,'Liberation Mono',monospace" font-size="11" fill="#c9d1d9">15</text>
</svg>